# xmcd
#
# Track frame offsets:
#	150
#	13882
#	28874
#	45172
#	59362
#	76821
#	94422
#	107930
#	126386
#	141765
#	155829
#	172679
#	187712
#	203428
#	215937
#	232374
#	253581
#	274239
#	296135
#	313349
#	327605
#
# Disc length: 4594 seconds
#
# Revision: 1
# Processed by: cddbd v1.5.2PL0 Copyright (c) Steve Scherf et al.
# Submitted via: audiograbber 1.83.01
#
DISCID=4411f015
DTITLE=Various Artist - Pure Urban Essentials 2010 [CD2]
DYEAR=2010
DGENRE=R&B
TTITLE0=Iyaz - Replay
TTITLE1=Kid Sister - Right Hand Hi
TTITLE2=Chipmunk - Oopsy Daisy
TTITLE3=Chuckie Ft. Jermaine Dupri and Lil Jon - Let The Bass Kick (Part 2)
TTITLE4=Sean Kingston - Fire Burning
TTITLE5=Gucci Mane Ft. Usher - Spotlight
TTITLE6=Wiley - Cash In My Pocket
TTITLE7=T.I. Ft. Mary J. Blige - Remember Me
TTITLE8=Ironik - Tiny Dancer (Hold Me Closer)
TTITLE9=New Boyz - You're A Jerk
TTITLE10=D4L - Laffy Taffy
TTITLE11=Musiq Soulchild - Radio
TTITLE12=Sean Paul - So Fine
TTITLE13=Gracious K - Migraine Skank
TTITLE14=T-Pain Ft. Chris Brown - Freeze
TTITLE15=Day 26 - Got Me Going
TTITLE16=Faith Evans - Love Like This
TTITLE17=Sunshine Anderson - Heard It All Before
TTITLE18=Aaliyah - More Than A Woman
TTITLE19=Alicia Keys - Teenage Love Affair
TTITLE20=Alesha Dixon - To Love Again
EXTD=
EXTT0=
EXTT1=
EXTT2=
EXTT3=
EXTT4=
EXTT5=
EXTT6=
EXTT7=
EXTT8=
EXTT9=
EXTT10=
EXTT11=
EXTT12=
EXTT13=
EXTT14=
EXTT15=
EXTT16=
EXTT17=
EXTT18=
EXTT19=
EXTT20=
PLAYORDER=
